<svg height="512" viewBox="0 0 64 64" width="512" xmlns="http://www.w3.org/2000/svg"><g id="money-coin-bank"><g fill="#ff6243"><path d="m9 23h7v15h-7z"/><path d="m48 23h7v15h-7z"/><path d="m61 11v7h-58v-7l29-8z"/></g><path d="m6 18h13v5h-13z" fill="#cd2a00"/><path d="m61 55v6h-58v-6h13 32z" fill="#cd2a00"/><path d="m45 18h13v5h-13z" fill="#cd2a00"/><circle cx="32" cy="11" fill="#fff" r="4"/><circle cx="32" cy="29" fill="#ffda44" r="11"/><circle cx="48" cy="44" fill="#ffda44" r="11"/><circle cx="16" cy="44" fill="#ffda44" r="11"/><path d="m21.707 38.707-1.414-1.414-4.293 4.293-4.293-4.293-1.414 1.414 4.707 4.707v1.586h-2v2h2v1h-2v2h2v2h2v-2h2v-2h-2v-1h2v-2h-2v-1.586z"/><path d="m49 49a4.977 4.977 0 0 1 -3.974-2h2.974v-2h-3.9a5 5 0 0 1 0-2h3.9v-2h-2.974a4.972 4.972 0 0 1 7.509-.536l1.414-1.413a6.989 6.989 0 0 0 -11.264 1.949h-2.685v2h2.08a6.29 6.29 0 0 0 0 2h-2.08v2h2.685a6.991 6.991 0 0 0 11.528 1.672l-1.49-1.335a5 5 0 0 1 -3.723 1.663z"/><path d="m32 24a2 2 0 0 1 2 2h2a4 4 0 0 0 -3-3.858v-1.142h-2v1.142a3.992 3.992 0 0 0 1 7.858 2 2 0 1 1 -2 2h-2a4 4 0 0 0 3 3.858v1.142h2v-1.142a3.992 3.992 0 0 0 -1-7.858 2 2 0 0 1 0-4z"/><path d="m56 24h2a1 1 0 0 0 1-1v-4h2a1 1 0 0 0 1-1v-7a1 1 0 0 0 -.73-.96l-29-8a.991.991 0 0 0 -.54 0l-29 8a1 1 0 0 0 -.73.96v7a1 1 0 0 0 1 1h2v4a1 1 0 0 0 1 1h2v11.08a11.966 11.966 0 0 0 1.38 18.92h-6.38a1 1 0 0 0 -1 1v6a1 1 0 0 0 1 1h58a1 1 0 0 0 1-1v-6a1 1 0 0 0 -1-1h-6.38a11.967 11.967 0 0 0 1.29-19h.09zm-52-7v-5.24l28-7.72 28 7.72v5.24zm34.62 2h5.38v4a1 1 0 0 0 1 1h2v8.05a11.825 11.825 0 0 0 -3.68.9 11.942 11.942 0 0 0 -4.7-13.95zm2.76 35h-18.76a11.942 11.942 0 0 0 4.7-13.95 12 12 0 0 0 9.36 0 11.942 11.942 0 0 0 4.7 13.95zm-9.38-15a9.952 9.952 0 0 1 -6.79-2.68 11.456 11.456 0 0 0 -.96-1.01 10 10 0 1 1 15.5 0 11.456 11.456 0 0 0 -.96 1.01 9.952 9.952 0 0 1 -6.79 2.68zm-11.32-6.05a11.825 11.825 0 0 0 -3.68-.9v-8.05h2a1 1 0 0 0 1-1v-4h5.38a11.942 11.942 0 0 0 -4.7 13.95zm-13.68-10.95v-3h11v3zm8 2v8.05a11.982 11.982 0 0 0 -5 1.57v-9.62zm-9 20a9.983 9.983 0 0 1 16.79-7.32 11.456 11.456 0 0 0 .96 1.01 10 10 0 1 1 -17.75 6.31zm54 12v4h-56v-4zm-2-12a10 10 0 1 1 -17.75-6.31 11.456 11.456 0 0 0 .96-1.01 9.983 9.983 0 0 1 16.79 7.32zm-9-11.95v-8.05h5v9.62a11.982 11.982 0 0 0 -5-1.57zm-3-10.05v-3h11v3z"/><path d="m32 16a5 5 0 1 0 -5-5 5.006 5.006 0 0 0 5 5zm0-8a3 3 0 1 1 -3 3 3 3 0 0 1 3-3z"/></g></svg>